<?xml version="1.0" encoding="UTF-8"?>
<svg id="Layer_3" data-name="Layer 3" xmlns="http://www.w3.org/2000/svg" viewBox="0 0 60.67 18.5">
  <defs>
    <style>
      .cls-1 {
        fill: #26d1ed;
      }

      .cls-2 {
        letter-spacing: 0em;
      }

      .cls-2, .cls-3 {
        font-size: 13px;
      }

      .cls-4 {
        font-size: 17.14px;
        letter-spacing: 0em;
      }

      .cls-3 {
        letter-spacing: -.01em;
      }

      .cls-3, .cls-5 {
        fill: #57ff5f;
      }

      .cls-6 {
        font-family: ForteMT, Forte;
      }
    </style>
  </defs>
  <g>
    <text class="cls-6" transform="translate(0 14.83)"><tspan class="cls-4" x="0" y="0">WX</tspan><tspan class="cls-2" x="26.4" y="0">pl</tspan><tspan class="cls-3" x="39.63" y="0">o</tspan><tspan class="cls-2" x="46.54" y="0">rer</tspan></text>
    <path class="cls-5" d="M24.52,4c-.62,.46-.62,.59-1.41,1.41-1.2,1.24-3.63,4.42-4.72,5.55-2.57,2.66-4.7,2.93-4.79,3.21-.32,1.01,1.09,3.49,1.34,3.49,.73,0,2.89-2.24,4.77-4.53s5.85-7.38,6.32-8.55c.23-.58,.58-2.13-1.51-.59Z"/>
    <polygon class="cls-5" points="28.75 .77 26.8 .46 26.64 .61 28.14 1.41 29.06 2.81 29.23 2.65 28.75 .77"/>
    <path class="cls-5" d="M27.39,1.89s1.31-1.63,1.47-1.73,.77-.42,.49,.3-1.58,1.74-1.58,1.74l.06,.55-.14,.13-.41-.58-.63-.32,.14-.17,.58,.08Z"/>
  </g>
  <g>
    <path class="cls-5" d="M43.5,12.81c-.12,.04-.23-.1-.28-.22-.2-.47-.27-.99-.22-1.5,0-.05,.02-.11,.05-.15,.07-.07,.19-.05,.26,.01s.1,.16,.13,.26c.08,.26,.16,.52,.24,.78,0,.02,.02,.05,.05,.06s.04-.02,.06-.04c.26-.37,.36-.84,.29-1.29-.01-.07-.02-.16,.04-.2,.03-.02,.06-.02,.09-.01,.12,.01,.23,.06,.32,.14-.09-.06-.16-.15-.19-.26,.21,.11,.38,.29,.49,.5l-.04-.09"/>
    <path class="cls-5" d="M43.1,11.36h-.03c.13-.01,.27-.03,.4-.05h-.03c.13,.02,.27,.03,.4,.05h-.03c.12,.04,.24,.09,.36,.14-.02,0-.04-.02-.05-.03l.3,.23s-.05-.04-.07-.07l.23,.3s-.05-.08-.07-.12l.15,.36c-.1-.24-.17-.5-.21-.76l.05,.4c-.03-.26-.04-.52,0-.77l-.05,.4s0-.04,.02-.06l-.15,.36s.02-.04,.03-.06l-.23,.3,.02-.02-.3,.23h.03c-.12,.04-.24,.09-.36,.14h.03c-.13,0-.27,.03-.4,.05,.02,0,.04,0,.06,0l-.4-.05s.04,.01,.06,.02l-.36-.15,.03,.02-.3-.23s.04,.03,.05,.05l-.23-.3s.04,.06,.06,.09l-.15-.36c.11,.25,.17,.54,.25,.8,.05,.17,.11,.34,.2,.5,.16,.31,.44,.51,.75,.65,.18,.09,.37,.14,.58,.13l.4-.05c.11-.03,.28-.1,.38-.16,.25-.13,.44-.37,.6-.61,.13-.2,.21-.42,.3-.64,.04-.11,.08-.22,.11-.34,.05-.24,.09-.49,.09-.73s-.05-.49-.08-.73l.05,.4s0-.06,0-.1l-.05,.4v-.03c-.04,.12-.09,.24-.14,.36l.02-.02-.23,.3,.02-.02-.66,.39h.03c-.13,0-.27,.02-.4,.04,.02,0,.04,0,.06,0l-.4-.05c.05,0,.1,.02,.15,.04l-.36-.15s.09,.05,.14,.08l-.3-.23,.03,.03,1.82-2.36-.03-.02,.3,.23s-.05-.05-.08-.08l.23,.3s-.05-.08-.07-.12l.15,.36v-.03c-.75,.56-1.48,1.13-2.21,1.69,.05,.03,.11,.06,.16,.1l-.3-.23c.08,.06,.15,.13,.21,.21l-.23-.3c.05,.06,.08,.12,.12,.19l2.59-1.51-.04-.09c-.17-.32-.55-.59-.9-.69s-.84-.05-1.16,.15-.6,.51-.69,.9c-.09,.4-.04,.78,.15,1.16l.04,.09c.17,.32,.55,.59,.9,.69s.84,.05,1.16-.15,.6-.51,.69-.9c.09-.4,.04-.78-.15-1.16-.03-.06-.06-.11-.1-.16-.1-.15-.22-.3-.34-.43-.08-.09-.18-.16-.28-.23-.1-.08-.2-.16-.31-.22-.22-.13-.5-.2-.76-.2l-.4,.05c-.2,.05-.37,.14-.51,.27-.11,.07-.2,.16-.27,.27-.09,.09-.16,.2-.19,.33-.12,.3-.18,.66-.08,.98,.06,.17,.13,.36,.23,.52,.08,.12,.18,.25,.28,.36s.24,.19,.36,.28c.17,.11,.36,.17,.56,.18,.2,.04,.4,.04,.6-.03l.36-.15c.17-.09,.32-.22,.42-.39,.2-.25,.34-.58,.32-.91-.02-.38-.14-.81-.44-1.06s-.5-.39-.87-.5c-.31-.09-.66-.11-.98-.02-.53,.14-.96,.58-1.11,1.1-.11,.37-.06,.62,0,.99l-.05-.4c.02,.16,.02,.32,0,.48l.05-.4c-.02,.16-.06,.31-.13,.46l.15-.36c-.05,.11-.1,.21-.17,.31l.23-.3s-.02,.03-.04,.04l.66-.39h-.02c.39,.05,.77,.1,1.16,.16h-.02c.18,.17,.36,.35,.54,.53v-.02c.04,.12,.09,.24,.14,.36-.17-.45-.23-.98-.5-1.39-.24-.36-.58-.66-1.01-.76-.3-.07-.62-.09-.92,0-.42,.12-.76,.41-.98,.78-.17,.3-.2,.58-.23,.92-.02,.19-.02,.38,0,.57,.03,.3,.07,.62,.15,.91,.03,.09,.06,.18,.09,.27,.07,.18,.13,.38,.24,.54,.17,.26,.37,.48,.64,.64,.13,.07,.27,.13,.41,.17,.32,.08,.53,.06,.86,0,.35-.07,.72-.39,.9-.69,.19-.32,.27-.8,.15-1.16s-.34-.71-.69-.9l-.36-.15c-.27-.07-.53-.07-.8,0h0Z"/>
  </g>
  <g>
    <path class="cls-1" d="M42.31,10.21c.02-.13,.06-.25,.14-.35,.12-.17,.32-.27,.52-.3s.41-.01,.62,.03c.32,.06,.64,.17,.94,.32,.09,.04,.17,.09,.23,.16s.08,.19,.03,.27c-.08,.14-.33,.14-.37,.29-.04,.14,.12,.25,.25,.31,.12,.05,.23,.11,.35,.16"/>
    <path class="cls-1" d="M43.76,10.05c.01-.07,.03-.14,.06-.2l-.09,.23c.03-.07,.06-.12,.11-.18l-.18,.22s.06-.06,.09-.09l-.26,.2s.09-.06,.14-.09l-.32,.17s.07-.03,.11-.05l-.38,.13c.05-.02,.11-.03,.16-.04l-.39,.07c.05,0,.1-.01,.15-.02h-.37c.1,0,.21,.02,.31,.03l-.33-.05c.26,.04,.52,.11,.77,.21l-.27-.1c.17,.07,.35,.13,.49,.24l-.2-.15s.06,.06,.08,.09l-.11-.2s.03,.07,.04,.12v-.23s0,.05-.01,.08l.09-.23s-.02,.04-.03,.06l.18-.22s-.03,.03-.04,.04l.26-.2s-.03,.02-.05,.03l.32-.17c-.28,.15-.56,.27-.79,.49s-.4,.52-.33,.86c.09,.41,.57,.59,.9,.74,.31,.14,.63,.17,.97,.14,.36-.04,.8-.17,1.09-.38,.22-.15,.51-.37,.54-.66,.03-.24-.08-.48-.31-.58-.16-.07-.33-.13-.48-.23l.2,.15s-.07-.06-.1-.1l.11,.2s-.02-.06-.02-.09v.23s.01-.04,.02-.06l-.09,.23v-.02c-.05,.07-.11,.15-.17,.22,.01-.01,.02-.03,.04-.04l-.26,.2s.05-.03,.07-.05l-.32,.17c.37-.18,.77-.38,.99-.74,.2-.32,.19-.7-.07-.98-.17-.18-.4-.3-.63-.39-.26-.11-.52-.21-.79-.27-.82-.21-1.65-.18-2.43,.14-.64,.25-1.23,.75-1.36,1.45-.05,.25,.1,.46,.31,.58,.27,.15,.67,.18,.97,.14,.38-.05,.78-.16,1.09-.38,.23-.16,.48-.37,.54-.66h0Z"/>
  </g>
  <g>
    <path class="cls-1" d="M41.67,13.36c.16,.15,.34,.29,.54,.37,.1,.04,.21,.08,.32,.11,.18,.05,.35,.1,.53,.16"/>
    <path class="cls-1" d="M40.32,13.91c.23,.21,.49,.4,.78,.51,.26,.1,.53,.17,.8,.24,.14,.06,.28,.09,.42,.09,.17,.02,.35,.02,.52-.01,.2-.02,.39-.07,.58-.14,.18-.05,.35-.13,.52-.22l.27-.18c.14-.1,.23-.23,.29-.39v-.19c-.05-.14-.14-.23-.28-.28-.19-.06-.38-.11-.57-.17-.17-.05-.34-.11-.49-.21l.19,.12c-.12-.08-.23-.17-.33-.26-.09-.08-.2-.14-.32-.16-.15-.05-.3-.07-.45-.06-.19,0-.38,.02-.56,.07-.2,.03-.39,.09-.57,.17l-.33,.16c-.18,.1-.33,.22-.46,.38l-.1,.2c-.04,.14,0,.26,.1,.35h0Z"/>
  </g>
  <g>
    <path class="cls-1" d="M42.79,9.51c.24-.16,.51-.34,.8-.3,.14,.02,.27,.08,.39,.14,.1,.05,.2,.1,.3,.16,.19,.11,.35,.25,.48,.43,.2,.28,.27,.66,.19,1,.13-.08,.14-.27,.09-.42s-.14-.28-.16-.43"/>
    <path class="cls-1" d="M43.74,10.12c.07-.05,.15-.1,.23-.15l-.32,.19c.08-.04,.16-.08,.24-.11l-.38,.14s.09-.03,.14-.04l-.39,.07s.07,0,.11,0h-.37s.07,0,.11,0l-.33-.07c.09,.02,.17,.05,.25,.08l-.28-.13c.23,.11,.47,.23,.66,.39l-.21-.18c.13,.11,.23,.24,.31,.39l-.12-.23c.07,.15,.12,.31,.13,.48v-.26c0,.12-.02,.24-.04,.36v.26c.05,.08,.09,.16,.13,.23l.21,.18c.14,.09,.28,.14,.44,.16,.56,.11,1.16-.04,1.63-.36,.22-.15,.42-.36,.53-.6s.12-.43,.09-.7c-.03-.19-.16-.35-.19-.55-.05-.27-.37-.47-.6-.54-.33-.11-.77-.1-1.1,0-.58,.17-1.32,.61-1.2,1.32,.04,.2,.18,.37,.19,.58v-.26c-.01,.05-.02,.1-.03,.14l.09-.26s-.02,.05-.04,.07l.18-.25-.02,.02,.25-.22s-.03,.02-.04,.03l2.41,.48c.08-.35,.04-.76-.11-1.09-.1-.21-.2-.41-.36-.57s-.33-.31-.52-.43c-.14-.09-.29-.16-.43-.22-.32-.15-.61-.27-.97-.29-.52-.03-.99,.08-1.47,.28-.25,.11-.49,.26-.72,.42s-.48,.45-.52,.73c-.03,.27,.11,.54,.34,.68,.63,.38,1.5,.2,2.07-.2h0Z"/>
  </g>
</svg>